%TF.GenerationSoftware,KiCad,Pcbnew,7.0.1-0*%
%TF.CreationDate,2023-03-27T18:44:24+09:00*%
%TF.ProjectId,ProgrammingShield V1.0,50726f67-7261-46d6-9d69-6e6753686965,rev?*%
%TF.SameCoordinates,Original*%
%TF.FileFunction,Soldermask,Bot*%
%TF.FilePolarity,Negative*%
%FSLAX46Y46*%
G04 Gerber Fmt 4.6, Leading zero omitted, Abs format (unit mm)*
G04 Created by KiCad (PCBNEW 7.0.1-0) date 2023-03-27 18:44:24*
%MOMM*%
%LPD*%
G01*
G04 APERTURE LIST*
%ADD10C,2.000000*%
%ADD11R,1.700000X1.700000*%
%ADD12O,1.700000X1.700000*%
%ADD13R,1.800000X1.800000*%
%ADD14C,1.800000*%
%ADD15C,1.600000*%
%ADD16O,1.600000X1.600000*%
%ADD17R,1.600000X1.600000*%
%ADD18C,2.700000*%
%ADD19C,1.524000*%
%ADD20R,1.524000X1.524000*%
%TA.AperFunction,Profile*%
%ADD21C,0.100000*%
%TD*%
G04 APERTURE END LIST*
D10*
%TO.C,SW2*%
X129550000Y-118350000D03*
X136050000Y-118350000D03*
X129550000Y-113850000D03*
X136050000Y-113850000D03*
%TD*%
%TO.C,SW1*%
X124150000Y-113850000D03*
X117650000Y-113850000D03*
X124150000Y-118350000D03*
X117650000Y-118350000D03*
%TD*%
D11*
%TO.C,J1*%
X168300000Y-98900000D03*
D12*
X165760000Y-98900000D03*
X168300000Y-101440000D03*
X165760000Y-101440000D03*
X168300000Y-103980000D03*
X165760000Y-103980000D03*
X168300000Y-106520000D03*
X165760000Y-106520000D03*
X168300000Y-109060000D03*
X165760000Y-109060000D03*
X168300000Y-111600000D03*
X165760000Y-111600000D03*
X168300000Y-114140000D03*
X165760000Y-114140000D03*
X168300000Y-116680000D03*
X165760000Y-116680000D03*
X168300000Y-119220000D03*
X165760000Y-119220000D03*
X168300000Y-121760000D03*
X165760000Y-121760000D03*
%TD*%
D13*
%TO.C,D1*%
X157660000Y-77100000D03*
D14*
X160200000Y-77100000D03*
%TD*%
D15*
%TO.C,C1*%
X138600000Y-86000000D03*
X138600000Y-83500000D03*
%TD*%
%TO.C,R3*%
X157700000Y-69500000D03*
D16*
X167860000Y-69500000D03*
%TD*%
D17*
%TO.C,C2*%
X137400000Y-93000000D03*
D15*
X139900000Y-93000000D03*
%TD*%
D18*
%TO.C,H3*%
X186000000Y-126000000D03*
%TD*%
D13*
%TO.C,D2*%
X165100000Y-77100000D03*
D14*
X167640000Y-77100000D03*
%TD*%
D15*
%TO.C,R1*%
X130400000Y-69500000D03*
D16*
X140560000Y-69500000D03*
%TD*%
D18*
%TO.C,H2*%
X114000000Y-126000000D03*
%TD*%
D13*
%TO.C,D3*%
X172340000Y-77100000D03*
D14*
X174880000Y-77100000D03*
%TD*%
D11*
%TO.C,J2*%
X180400000Y-98900000D03*
D12*
X177860000Y-98900000D03*
X180400000Y-101440000D03*
X177860000Y-101440000D03*
X180400000Y-103980000D03*
X177860000Y-103980000D03*
X180400000Y-106520000D03*
X177860000Y-106520000D03*
X180400000Y-109060000D03*
X177860000Y-109060000D03*
X180400000Y-111600000D03*
X177860000Y-111600000D03*
X180400000Y-114140000D03*
X177860000Y-114140000D03*
X180400000Y-116680000D03*
X177860000Y-116680000D03*
X180400000Y-119220000D03*
X177860000Y-119220000D03*
X180400000Y-121760000D03*
X177860000Y-121760000D03*
%TD*%
D15*
%TO.C,R2*%
X144040000Y-69500000D03*
D16*
X154200000Y-69500000D03*
%TD*%
D19*
%TO.C,U2*%
X154000000Y-95600000D03*
X154000000Y-98140000D03*
X154000000Y-100680000D03*
X154000000Y-103220000D03*
X154000000Y-105760000D03*
X154000000Y-108300000D03*
X154000000Y-110840000D03*
X154000000Y-113380000D03*
X154000000Y-115920000D03*
X154000000Y-118460000D03*
X146380000Y-118460000D03*
X146380000Y-115920000D03*
X146380000Y-113380000D03*
X146380000Y-110840000D03*
X146380000Y-108300000D03*
X146380000Y-105760000D03*
X146380000Y-103220000D03*
X146380000Y-100680000D03*
X146380000Y-98140000D03*
D20*
X146380000Y-95600000D03*
%TD*%
D18*
%TO.C,H4*%
X186000000Y-69000000D03*
%TD*%
D11*
%TO.C,J3*%
X171220000Y-90400000D03*
D12*
X171220000Y-87860000D03*
X173760000Y-90400000D03*
X173760000Y-87860000D03*
X176300000Y-90400000D03*
X176300000Y-87860000D03*
%TD*%
D13*
%TO.C,D4*%
X179600000Y-77100000D03*
D14*
X182140000Y-77100000D03*
%TD*%
D15*
%TO.C,R4*%
X171400000Y-69500000D03*
D16*
X181560000Y-69500000D03*
%TD*%
D17*
%TO.C,U1*%
X117760000Y-79800000D03*
D16*
X117760000Y-82340000D03*
X117760000Y-84880000D03*
X117760000Y-87420000D03*
X117760000Y-89960000D03*
X117760000Y-92500000D03*
X117760000Y-95040000D03*
X117760000Y-97580000D03*
X117760000Y-100120000D03*
X117760000Y-102660000D03*
X117760000Y-105200000D03*
X117760000Y-107740000D03*
X133000000Y-107740000D03*
X133000000Y-105200000D03*
X133000000Y-102660000D03*
X133000000Y-100120000D03*
X133000000Y-97580000D03*
X133000000Y-95040000D03*
X133000000Y-92500000D03*
X133000000Y-89960000D03*
X133000000Y-87420000D03*
X133000000Y-84880000D03*
X133000000Y-82340000D03*
X133000000Y-79800000D03*
%TD*%
D18*
%TO.C,H1*%
X114000000Y-69000000D03*
%TD*%
D21*
X110100000Y-65100000D02*
X190100000Y-65100000D01*
X190100000Y-130100000D01*
X110100000Y-130100000D01*
X110100000Y-65100000D01*
M02*
