M48
INCH,TZ
T1C0.0157
T2C0.0315
T3C0.0354
T4C0.0394
T5C0.0400
T6C0.0433
%
G90
G05
T1
X44882Y-37441
X44902Y-43280
X44909Y-32291
X49094Y-27205
X50433Y-48622
X54567Y-29606
X54606Y-42362
X57161Y-49913
X59921Y-32244
X63622Y-49606
X69646Y-28583
X73307Y-32205
X73307Y-37362
X73307Y-43268
T2
X46362Y-31417
X46362Y-32417
X46362Y-33417
X46362Y-34417
X46362Y-35417
X46362Y-36417
X46362Y-37417
X46362Y-38417
X46362Y-39417
X46362Y-40417
X46362Y-41417
X46362Y-42417
X51339Y-27362
X52362Y-31417
X52362Y-32417
X52362Y-33417
X52362Y-34417
X52362Y-35417
X52362Y-36417
X52362Y-37417
X52362Y-38417
X52362Y-39417
X52362Y-40417
X52362Y-41417
X52362Y-42417
X54094Y-36614
X54567Y-32874
X54567Y-33858
X55079Y-36614
X55339Y-27362
X56709Y-27362
X60709Y-27362
X62087Y-27362
X66087Y-27362
X67480Y-27362
X71480Y-27362
T3
X62071Y-30354
X63071Y-30354
X65000Y-30354
X66000Y-30354
X67850Y-30354
X68850Y-30354
X70709Y-30354
X71709Y-30354
T4
X65260Y-38937
X65260Y-39937
X65260Y-40937
X65260Y-41937
X65260Y-42937
X65260Y-43937
X65260Y-44937
X65260Y-45937
X65260Y-46937
X65260Y-47937
X66260Y-38937
X66260Y-39937
X66260Y-40937
X66260Y-41937
X66260Y-42937
X66260Y-43937
X66260Y-44937
X66260Y-45937
X66260Y-46937
X66260Y-47937
X67409Y-34591
X67409Y-35591
X68409Y-34591
X68409Y-35591
X69409Y-34591
X69409Y-35591
X70024Y-38937
X70024Y-39937
X70024Y-40937
X70024Y-41937
X70024Y-42937
X70024Y-43937
X70024Y-44937
X70024Y-45937
X70024Y-46937
X70024Y-47937
X71024Y-38937
X71024Y-39937
X71024Y-40937
X71024Y-41937
X71024Y-42937
X71024Y-43937
X71024Y-44937
X71024Y-45937
X71024Y-46937
X71024Y-47937
T5
X57630Y-37638
X57630Y-38638
X57630Y-39638
X57630Y-40638
X57630Y-41638
X57630Y-42638
X57630Y-43638
X57630Y-44638
X57630Y-45638
X57630Y-46638
X60630Y-37638
X60630Y-38638
X60630Y-39638
X60630Y-40638
X60630Y-41638
X60630Y-42638
X60630Y-43638
X60630Y-44638
X60630Y-45638
X60630Y-46638
T6
X46319Y-44823
X46319Y-46594
X48878Y-44823
X48878Y-46594
X51004Y-44823
X51004Y-46594
X53563Y-44823
X53563Y-46594
T0
M30
